OpenSim_Sub11_CSPreOp_GRF.mot
version=1
nRows=64
nColumns=19
inDegrees=no
endheader
time	lFx	lFy	lFz	lCOPx	lCOPy	lCOPz	rFx	rFy	rFz	rCOPx	rCOPy	rCOPz	lMx	lMy	lMz	rMx	rMy	rMz
9.25000000	-2.94199673	417.98816566	53.31506181	0.61696470	0	-0.60703474	44.20614202	552.98538249	-46.40120179	0.46292515	0	-0.35809363	0	-1.95362873	0	0	0.62538368	0
9.26000000	-3.52930588	443.10029989	56.49819921	0.61423570	0	-0.60742731	43.13152519	531.24174221	-45.66633099	0.46162482	0	-0.35776745	0	-2.04163888	0	0	0.49671353	0
9.27000000	-3.89166232	467.33518574	59.22658145	0.61149776	0	-0.60774901	41.38676340	505.12794571	-44.68719119	0.46063900	0	-0.35742817	0	-2.07744843	0	0	0.37001241	-0.00000000
9.28000000	-4.05187235	490.45704269	61.48185023	0.60879436	0	-0.60799157	38.92829450	474.89052654	-43.49673512	0.45967208	0	-0.35704882	0	-2.02085706	0	0	0.31053544	0.00000000
9.29000000	-4.14498807	512.32827123	63.35951836	0.60612438	0	-0.60815847	35.83368857	441.18471772	-42.09043824	0.45847495	0	-0.35669565	0	-1.88711568	0	0	0.29470417	0
9.30000000	-4.33471328	533.13291489	65.01286626	0.60364750	0	-0.60828570	32.25400154	405.37778012	-40.38890614	0.45757567	0	-0.35631387	0	-1.68581883	0	0	0.30268856	0.00000000
9.31000000	-4.59216299	553.07639614	66.52250359	0.60138498	0	-0.60841333	28.48398460	368.88281071	-38.32283401	0.45711732	0	-0.35580956	0	-1.42974843	0	0	0.29003834	0
9.32000000	-4.70774767	571.79595120	67.88467531	0.59923335	0	-0.60852472	24.73086687	332.79296418	-35.98649664	0.45716786	0	-0.35516221	0	-1.13501935	0	0	0.28023570	0.00000000
9.33000000	-4.64913274	588.41811722	69.05355754	0.59702021	0	-0.60858575	21.03483797	298.01635108	-33.43826177	0.45808117	0	-0.35446298	0	-0.82974754	0	0	0.24350528	0
9.34000000	-4.58645053	602.16695716	70.00916562	0.59467332	0	-0.60865150	17.41918320	265.22189362	-30.65834157	0.45998809	0	-0.35378819	0	-0.58884364	0	0	0.21064986	0
9.35000000	-4.49460706	612.89064213	70.72172356	0.59211821	0	-0.60875565	14.14440707	234.45766311	-27.66888810	0.46187384	0	-0.35319009	0	-0.41771321	0	0	0.20815271	0.00000000
9.36000000	-4.21961516	620.85544995	71.22446161	0.58958331	0	-0.60891423	11.36958115	205.78965090	-24.58521567	0.46374216	0	-0.35250045	0	-0.32483272	0	0	0.27846451	0.00000000
9.37000000	-3.63017764	626.37774719	71.50002704	0.58706581	0	-0.60913496	8.94714782	179.42015015	-21.49437170	0.46788404	0	-0.35141169	0	-0.26140368	0	0	0.31879561	0
9.38000000	-2.71776324	629.97889149	71.54961826	0.58451849	0	-0.60943314	6.61519845	155.44913014	-18.56815066	0.47548352	0	-0.34981008	0	-0.20603134	0	0	0.25827207	0
9.39000000	-1.50495519	632.31762568	71.39975357	0.58191720	0	-0.60977142	4.32894026	134.12772050	-16.00696891	0.48526811	0	-0.34772352	0	-0.12743199	0	0	0.18474735	0
9.40000000	-0.11875157	633.91395887	71.19979910	0.57935500	0	-0.61005930	2.22283647	116.08132037	-13.78566420	0.49462133	0	-0.34549117	0	-0.07072959	0	0	0.15916517	-0.00000000
9.41000000	1.33543637	635.05532032	70.94009465	0.57687867	0	-0.61027356	0.44923447	101.66772576	-11.72212283	0.50209866	0	-0.34373103	0	-0.00017459	0	0	0.24633658	-0.00000000
9.42000000	2.87399834	635.86437754	70.64048941	0.57435692	0	-0.61043124	-0.76321038	90.50367521	-9.56484020	0.50624414	0	-0.34314400	0	0.05179146	0	0	0.40422575	0.00000000
9.43000000	4.64480047	636.44332774	70.25471887	0.57158789	0	-0.61055901	-1.29109883	81.78080869	-7.31796988	0.50923108	0	-0.34445574	0	0.12599838	0	0	0.55525139	0.00000000
9.44000000	6.58519288	637.07163589	69.82240195	0.56859387	0	-0.61066364	-1.38896529	74.25027012	-5.34228788	0.51193954	0	-0.34873857	0	0.23446143	0	0	0.68611538	0.00000000
9.45000000	8.37555634	638.09853391	69.40634870	0.56559921	0	-0.61072734	-1.44121910	67.15876002	-3.96314233	0.51639706	0	-0.35580090	0	0.38793258	0	0	0.80073311	0
9.46000000	9.78818465	639.76941604	69.10161847	0.56279435	0	-0.61071882	-1.61407892	60.29894492	-3.10808339	0.51892288	0	-0.36244755	0	0.54520981	0	0	0.82048234	0.00000000
9.47000000	10.81856030	641.99197446	68.83319024	0.56012767	0	-0.61058692	-1.95130150	53.66826212	-2.64886334	0.51104951	0	-0.35973750	0	0.71003665	0	0	0.77798060	0
9.48000000	11.57586543	644.53368134	68.45834490	0.55751967	0	-0.61033617	-2.42613217	46.91149344	-2.40855074	0.47073170	0	-0.33131501	0	0.89316212	0	0	0.65762220	0
9.49000000	12.13391294	647.03417466	67.94240394	0.55479119	0	-0.61002367	-3.05934641	39.89129362	-2.35428365	0.37249973	0	-0.25888144	0	1.08581903	0	0	0.46572892	0.00000000
9.50000000	12.56268265	649.03138593	67.28271834	0.55193516	0	-0.60969422	-3.90768571	32.72742575	-2.36254064	0.21506764	0	-0.14725200	0	1.29898436	0	0	0.24027502	0
9.51000000	12.85622592	650.16118521	66.51082909	0.54917008	0	-0.60936237	-4.94902442	25.89742199	-2.25640729	0.07679447	0	-0.05154648	0	1.51253821	0	0	0.07176580	0
9.52000000	12.96684635	650.43707502	65.66090153	0.54666294	0	-0.60904820	-6.05911294	19.80765142	-1.94194336	0.00523120	0	-0.00274840	0	1.70787362	0	0	-0.00547308	0.00000000
9.53000000	12.94812265	650.04371237	64.76179533	0.54423366	0	-0.60874960	-6.72255725	14.77086532	-1.52964767	-0.01603239	0	0.01137681	0	1.88942794	0	0	-0.02334124	0.00000000
9.54000000	13.09037030	649.21868545	63.79943894	0.54156661	0	-0.60847753	-6.13288768	10.56603956	-1.07093327	-0.01431271	0	0.00990234	0	2.07800584	0	0	-0.01738572	0.00000000
9.55000000	13.51546542	648.21143260	62.83389735	0.53867843	0	-0.60824518	-4.21757848	6.95467049	-0.56592633	-0.00731780	0	0.00498779	0	2.27899303	0	0	-0.00786926	0.00000000
9.56000000	14.06131140	647.07934535	61.98418626	0.53592338	0	-0.60809042	-2.03877162	4.02828359	-0.06797360	-0.00212861	0	0.00141213	0	2.47527909	0	0	-0.00176304	-0.00000000
9.57000000	14.58503096	645.71165139	61.30148635	0.53331189	0	-0.60801098	-0.53282962	2.26227862	0.28467001	0.00021274	0	-0.00017624	0	2.63327066	0	0	0.00065306	0.00000000
9.58000000	15.10797081	644.02053164	60.77246613	0.53072145	0	-0.60797931	0.12614419	1.61232202	0.43510041	0.00073297	0	-0.00051458	0	2.72509323	0	0	0.00099177	0.00000000
9.59000000	15.71992452	642.08219994	60.34381369	0.52808611	0	-0.60798093	0.25088166	1.59040990	0.44938328	0.00053518	0	-0.00036863	0	2.75590170	0	0	0.00062782	0.00000000
9.60000000	16.45904489	640.10159459	59.95221141	0.52529466	0	-0.60801648	0.18051636	1.64565262	0.43925939	0.00023842	0	-0.00016166	0	2.75444355	0	0	0.00024491	-0.00000000
9.61000000	17.32142286	638.34305196	59.59622774	0.52239671	0	-0.60803108	0.09658349	1.62580021	0.42434201	0.00005119	0	-0.00003319	0	2.74771443	0	0	0.00003199	0.00000000
9.62000000	18.20841306	637.05201861	59.29181337	0.51948785	0	-0.60799246	0.04754236	1.53781912	0.40854270	-0.00002158	0	0.00001586	0	2.74152750	0	0	-0.00003878	0.00000000
9.63000000	19.01833919	636.36998377	59.05991737	0.51664194	0	-0.60791078	0.01406127	1.46284421	0.37181121	-0.00003091	0	0.00002154	0	2.72492352	0	0	-0.00003972	0.00000000
9.64000000	19.75570130	636.23462234	58.87450941	0.51378343	0	-0.60779691	0.00460655	1.47426936	0.33846357	-0.00001924	0	0.00001320	0	2.70998054	0	0	-0.00002181	0.00000000
9.65000000	20.57671111	636.50440736	58.68530991	0.51079329	0	-0.60767166	0.01200714	1.63005519	0.33757409	-0.00000737	0	0.00000497	0	2.71498443	0	0	-0.00000712	0.00000000
9.66000000	21.56619342	637.11080030	58.48128183	0.50769008	0	-0.60754484	0.02383857	1.84913722	0.36463449	-0.00000087	0	0.00000052	0	2.73995833	0	0	0.00000001	0.00000000
9.67000000	22.60421952	638.09424746	58.27792802	0.50467661	0	-0.60742316	0.01428722	1.92098604	0.37379897	0.00000124	0	-0.00000089	0	2.78570990	0	0	0.00000188	-0.00000000
9.68000000	23.57482055	639.39808291	58.09686640	0.50172811	0	-0.60727871	-0.00113154	1.79513473	0.35610476	0.00000123	0	-0.00000085	0	2.87112485	0	0	0.00000152	-0.00000000
9.69000000	24.49114587	640.90010146	57.98564977	0.49886480	0	-0.60710435	-0.00176059	1.64786697	0.32475410	0.00000067	0	-0.00000045	0	2.97183684	0	0	0.00000073	0.00000000
9.70000000	25.43614378	642.38259449	57.92617739	0.49604913	0	-0.60691021	0.02222135	1.57365974	0.30537635	0.00000021	0	-0.00000014	0	3.08551867	0	0	0.00000019	0.00000000
9.71000000	26.48401184	643.68862909	57.89068590	0.49339916	0	-0.60680176	0.05585314	1.53772272	0.30504312	-0.00000000	0	0.00000000	0	3.18646766	0	0	-0.00000004	-0.00000000
9.72000000	27.72772835	644.90827303	57.88830014	0.49100294	0	-0.60706397	0.07120734	1.53782455	0.31041697	-0.00000006	0	0.00000004	0	3.26977701	0	0	-0.00000008	0.00000000
9.73000000	29.16479193	646.70735352	58.00276667	0.48926599	0	-0.60824493	0.06565514	1.53594240	0.32258900	-0.00000004	0	0.00000003	0	3.33186501	0	0	-0.00000006	-0.00000000
9.74000000	30.75109498	649.93701061	58.29216980	0.48865998	0	-0.61087260	0.04009412	1.53743034	0.32038975	-0.00000003	0	0.00000002	0	3.39704481	0	0	-0.00000004	-0.00000000
9.75000000	32.34929937	654.31546416	58.77123423	0.48874051	0	-0.61439401	0.00949312	1.47878467	0.32126731	-0.00000003	0	0.00000002	0	3.42324588	0	0	-0.00000003	0.00000000
9.76000000	33.87993025	656.16235009	59.03791022	0.48657402	0	-0.61524245	-0.00123112	1.51793526	0.33345940	-0.00000005	0	0.00000003	0	3.45577693	0	0	-0.00000004	0.00000000
9.77000000	34.84187441	645.93960271	58.20349056	0.47542476	0	-0.60458546	0.02147878	1.55820327	0.36022857	-0.00000007	0	0.00000004	0	3.42530195	0	0	-0.00000000	0.00000000
9.78000000	34.14855716	608.66529212	54.86654490	0.44495796	0	-0.56876085	0.03917661	1.52700002	0.33088255	-0.00000002	0	0.00000001	0	3.26892672	0	0	0.00000013	0.00000000
9.79000000	31.03068309	535.12105568	48.23411104	0.38907006	0	-0.49957367	0.02726453	1.30773312	0.25411682	0.00000023	0	-0.00000013	0	2.89052552	0	0	0.00000043	0.00000000
9.80000000	27.21513136	453.64654479	40.89802556	0.32850164	0	-0.42385486	-0.05243298	1.14066206	0.14846725	0.00000077	0	-0.00000045	0	2.42969730	0	0	0.00000081	-0.00000000
9.81000000	28.50396264	458.26947569	41.37894804	0.33122852	0	-0.42976454	-0.13733262	1.20360375	0.13672559	0.00000150	0	-0.00000089	0	2.36315792	0	0	0.00000086	-0.00000000
9.82000000	34.44180061	539.70720830	48.79226023	0.39044545	0	-0.50866789	-0.11173880	1.44263664	0.20700051	0.00000166	0	-0.00000100	0	2.66427409	0	0	-0.00000044	-0.00000000
9.83000000	39.46466728	607.28471766	54.93007816	0.44031239	0	-0.57546565	-0.09374563	1.61938689	0.28316363	-0.00000061	0	0.00000029	0	2.89688863	0	0	-0.00000460	0.00000000
9.84000000	42.05493738	638.66753111	57.83684884	0.46435168	0	-0.60880796	-0.16763454	1.86500353	0.32534726	-0.00000816	0	0.00000468	0	2.93198309	0	0	-0.00001242	-0.00000000
9.85000000	42.70233444	644.61054508	58.59109033	0.47029928	0	-0.61839714	-0.36776492	2.17140151	0.34800493	-0.00002266	0	0.00001324	0	2.79644158	0	0	-0.00002052	-0.00000000
9.86000000	42.25894615	639.53283145	58.56931597	0.46869274	0	-0.61767164	-0.61006469	2.48573027	0.31939301	-0.00003835	0	0.00002274	0	2.54581119	0	0	-0.00001569	-0.00000000
9.87000000	41.52188595	632.12395126	58.51723793	0.46580356	0	-0.61492414	-0.64416553	2.49969941	0.29311983	-0.00003140	0	0.00001936	0	2.23307479	0	0	0.00002981	-0.00000000
9.88000000	40.99851673	625.43569923	58.62733588	0.46375090	0	-0.61325229	-0.42839842	2.24894391	0.31104136	0.00004936	0	-0.00002702	0	1.91348201	0	0	0.00015070	0.00000000
